<svg width="172" height="172" viewBox="0 0 172 172" fill="none" xmlns="http://www.w3.org/2000/svg">
<rect width="172" height="172" rx="4" fill="#F7F4F4"/>
<path d="M110 56H62C58.6875 56 56 58.6875 56 62V110C56 113.312 58.6875 116 62 116H110C113.312 116 116 113.312 116 110V62C116 58.6875 113.312 56 110 56ZM62 60H110C110.531 60 111.039 60.2109 111.414 60.5859C111.789 60.9609 112 61.4688 112 62V100.84L101.34 87.379C100.582 86.422 99.4259 85.8634 98.2033 85.8634C96.9845 85.8634 95.8283 86.422 95.0705 87.379L92.3713 90.7892C91.6096 91.7463 90.4572 92.3048 89.2346 92.3048C88.012 92.3048 86.8596 91.7463 86.1018 90.7892L74.3518 76.0002C73.5901 75.0432 72.4377 74.4846 71.2151 74.4846C69.9925 74.4846 68.8401 75.0432 68.0784 76.0002L60.0003 86.1602V62.0002C60.0003 60.8947 60.8949 60.0002 62.0003 60.0002L62 60Z" fill="#CCCCCC"/>
<path d="M108.828 70.5C108.828 77.168 98.8281 77.168 98.8281 70.5C98.8281 63.832 108.828 63.832 108.828 70.5Z" fill="#CCCCCC"/>
</svg>
